####
#
# OBJ File Generated by Meshlab
#
####
# Object ground.obj
#
# Vertices: 8
# Faces: 6
#
####
mtllib ./ground.obj.mtl

vn -0.816497 -0.408248 0.408248
v -10.009432 -0.199224 10.009432
vn -0.333333 0.666667 0.666667
v -10.009432 -0.003017 10.009432
vn -0.816497 0.408248 -0.408248
v -10.009432 -0.003013 -10.009432
vn -0.333333 -0.666667 -0.666667
v -10.009432 -0.199220 -10.009432
vn 0.333333 0.666667 -0.666667
v 10.009432 -0.003013 -10.009432
vn 0.816497 -0.408248 -0.408248
v 10.009432 -0.199220 -10.009432
vn 0.816497 0.408248 0.408248
v 10.009432 -0.003017 10.009432
vn 0.333333 -0.666667 0.666667
v 10.009432 -0.199224 10.009432
# 8 vertices, 0 vertices normals


usemtl material_0
vt 0.000000 0.000000
vt 0.000000 0.000000
f 2/1/2 3/1/3 4/1/4 1/2/1
f 3/1/3 5/1/5 6/1/6 4/2/4
f 5/1/5 7/1/7 8/1/8 6/2/6
f 7/1/7 2/1/2 1/1/1 8/2/8
f 6/1/6 8/1/8 1/1/1 4/2/4
f 3/1/3 2/1/2 7/1/7 5/1/5
# 6 faces, 2 coords texture

# End of File
